<svg width="200" height="116" fill="none" xmlns="http://www.w3.org/2000/svg"><path d="M101.2 1h-33c-4 0-7.2 3.2-7.2 7.2v52.9c0 4 3.2 7.2 7.2 7.2h42c4 0 7.2-3.2 7.2-7.2V17.2L101.2 1z" fill="url(#paint0_linear_3030_10702)"/><path d="M103.9 17.2h13.5L101.2 1v13.5c0 1.5 1.2 2.7 2.7 2.7z" fill="url(#paint1_linear_3030_10702)"/><path d="M80.7 37.5h-1v2.7h-2.4v-9.4h3.4c2.8 0 4.2 1.1 4.2 3.2 0 2.2-1.5 3.5-4.2 3.5zm0-4.7h-1v2.8h1c1.2 0 1.8-.6 1.8-1.4 0-.9-.6-1.4-1.8-1.4zm8.5 7.4h-3.3v-9.4h3.3c3.6 0 5.6 1.4 5.6 4.6 0 3.1-1.9 4.8-5.6 4.8zm0-7.3h-.9v5.3h.9c2.2 0 3.2-.9 3.2-2.7 0-1.8-1-2.6-3.2-2.6zm13.3 0h-4.1v2.3h3.7v2h-3.7v3H96v-9.4h6.5v2.1z" fill="#fff"/><path opacity=".3" d="M126.8 59.9c-31.2-6.4-42.6-6-81.1-2C5.8 62.1.8 88.2 25.9 88.2c39.9 0 60.7 27.2 93.8 27.2 27.6 0 40-3.2 58.6-9 16.1-5 32.3-17.5 4.6-21.6-40.4-6-38.2-21.2-56.1-24.9z" fill="url(#paint2_linear_3030_10702)"/><path opacity=".7" d="M134.7 110.3c34.076 0 61.7-5.776 61.7-12.9 0-7.125-27.624-12.9-61.7-12.9-34.076 0-61.7 5.775-61.7 12.9 0 7.124 27.624 12.9 61.7 12.9z" fill="url(#paint3_radial_3030_10702)"/><path d="M97.5 85.4l-10.1 6.3V87C81.7 87 77 82.3 77 76.6h3.2c0 4 3.2 7.2 7.2 7.2v-4.7l10.1 6.3z" fill="url(#paint4_linear_3030_10702)"/><path d="M157.3 97.4h-43c-4 0-7.3-3.3-7.3-7.3V37.3c0-4 3.3-7.3 7.3-7.3h43c4 0 7.3 3.3 7.3 7.3v52.8c0 4.1-3.3 7.3-7.3 7.3z" fill="url(#paint5_linear_3030_10702)"/><path d="M156.9 97.2H137V53h27.1v37c0 4-3.2 7.2-7.2 7.2z" fill="url(#paint6_linear_3030_10702)"/><path d="M153.6 51.54h-37.1c-.8 0-1.5.7-1.5 1.5s.7 1.5 1.5 1.5h37.1c.8 0 1.5-.7 1.5-1.5s-.7-1.5-1.5-1.5zm0-8.3h-37.1c-.8 0-1.5.7-1.5 1.5s.7 1.5 1.5 1.5h37.1c.8 0 1.5-.7 1.5-1.5s-.7-1.5-1.5-1.5zm0 16.7h-37.1c-.8 0-1.5.7-1.5 1.5s.7 1.5 1.5 1.5h37.1c.8 0 1.5-.7 1.5-1.5 0-.9-.7-1.5-1.5-1.5zm0 8.3h-37.1c-.8 0-1.5.7-1.5 1.5s.7 1.5 1.5 1.5h37.1c.8 0 1.5-.7 1.5-1.5s-.6-1.5-1.5-1.5zm.414 8.3H148.5c-.8 0-1.5.7-1.5 1.5s.7 1.5 1.5 1.5h5.514c.8 0 1.5-.7 1.5-1.5s-.6-1.5-1.5-1.5z" fill="url(#paint7_linear_3030_10702)"/><path d="M122.925 87.473v-7.636h2.768V77.1H117v2.737h2.784v7.636h3.141z" fill="url(#paint8_linear_3030_10702)"/><path d="M136.197 87.473l-3.468-5.334 3.235-5.039h-3.717l-1.648 2.955-1.68-2.955h-3.686l3.235 5.054-3.468 5.32h3.701l1.898-3.174 1.897 3.173h3.701z" fill="url(#paint9_linear_3030_10702)"/><path d="M141.925 87.473v-7.636h2.768V77.1H136v2.737h2.784v7.636h3.141z" fill="url(#paint10_linear_3030_10702)"/><defs><linearGradient id="paint0_linear_3030_10702" x1="89.2" y1="68.3" x2="89.2" y2="1" gradientUnits="userSpaceOnUse"><stop stop-color="#09BDF8"/><stop offset="1" stop-color="#1591D4"/></linearGradient><linearGradient id="paint1_linear_3030_10702" x1="102.001" y1="16.399" x2="109.301" y2="9.099" gradientUnits="userSpaceOnUse"><stop stop-color="#2651A1"/><stop offset="1" stop-color="#1E3C74"/></linearGradient><linearGradient id="paint2_linear_3030_10702" x1="10.534" y1="85.188" x2="197.888" y2="85.188" gradientUnits="userSpaceOnUse"><stop stop-color="#BFD0E9" stop-opacity=".4"/><stop offset="1" stop-color="#859CD6" stop-opacity=".3"/></linearGradient><linearGradient id="paint4_linear_3030_10702" x1="77.05" y1="84.15" x2="97.525" y2="84.15" gradientUnits="userSpaceOnUse"><stop stop-color="#FFCB5D"/><stop offset="1" stop-color="#FF723F"/></linearGradient><linearGradient id="paint5_linear_3030_10702" x1="135.8" y1="97.4" x2="135.8" y2="30" gradientUnits="userSpaceOnUse"><stop stop-color="#AECBD7"/><stop offset="1" stop-color="#E0ECF4"/></linearGradient><linearGradient id="paint6_linear_3030_10702" x1="164.144" y1="75.1" x2="137.09" y2="75.1" gradientUnits="userSpaceOnUse"><stop stop-color="#133462" stop-opacity=".26"/><stop offset="1" stop-color="#24396E" stop-opacity="0"/></linearGradient><linearGradient id="paint7_linear_3030_10702" x1="135.05" y1="79.611" x2="135.05" y2="43.311" gradientUnits="userSpaceOnUse"><stop stop-color="#DDEDF8"/><stop offset="1" stop-color="#F5FBFE"/></linearGradient><linearGradient id="paint8_linear_3030_10702" x1="118.413" y1="86.96" x2="121.412" y2="78.7" gradientUnits="userSpaceOnUse"><stop stop-color="#2651A1"/><stop offset="1" stop-color="#1E3C74"/></linearGradient><linearGradient id="paint9_linear_3030_10702" x1="117.724" y1="86.96" x2="120.723" y2="78.7" gradientUnits="userSpaceOnUse"><stop stop-color="#2651A1"/><stop offset="1" stop-color="#1E3C74"/></linearGradient><linearGradient id="paint10_linear_3030_10702" x1="117.533" y1="86.96" x2="120.532" y2="78.7" gradientUnits="userSpaceOnUse"><stop stop-color="#2651A1"/><stop offset="1" stop-color="#1E3C74"/></linearGradient><radialGradient id="paint3_radial_3030_10702" cx="0" cy="0" r="1" gradientUnits="userSpaceOnUse" gradientTransform="matrix(57.236 0 0 12.1255 134.7 97.363)"><stop stop-color="#919FB9" stop-opacity=".6"/><stop offset=".191" stop-color="#95A3BC" stop-opacity=".485"/><stop offset=".392" stop-color="#A2AEC4" stop-opacity=".365"/><stop offset=".597" stop-color="#B7C0D1" stop-opacity=".242"/><stop offset=".803" stop-color="#D4DAE4" stop-opacity=".118"/><stop offset="1" stop-color="#F7F9FB" stop-opacity="0"/></radialGradient></defs></svg>